<svg width="52" height="29" viewBox="0 0 52 29" fill="none" xmlns="http://www.w3.org/2000/svg">
<path id="Vector" d="M37.9064 0.830505H13.9687C10.3308 0.830505 6.86929 2.23793 4.28901 4.81925C1.70873 7.40161 0.298187 10.8631 0.298187 14.5C0.298187 22.0685 6.45931 28.1705 13.9687 28.1705H37.9064C41.5433 28.1705 45.0068 26.761 47.5871 24.1797C50.1674 21.5984 51.5769 18.1379 51.5769 14.5C51.5769 6.93143 45.4749 0.830505 37.9064 0.830505ZM25.937 22.3623H13.9687C9.62602 22.3623 6.10746 18.8396 6.10746 14.501C6.10746 12.3878 6.92742 10.4531 8.39608 8.92632C9.86163 7.4587 11.8565 6.6377 13.9687 6.6377H25.937V22.3623ZM41.8962 12.0941C41.3097 12.6826 40.4867 13.0926 39.5473 13.0926H34.1512C32.3306 13.0926 30.8661 11.6249 30.8661 9.80649C30.8661 8.86716 31.219 8.0472 31.8625 7.4587C32.4479 6.87227 33.2689 6.52041 34.2124 6.52041H39.6677C41.4841 6.52041 42.9538 7.98804 42.9538 9.80649C42.8936 10.6856 42.5407 11.5087 41.8962 12.0941Z" fill="#091426"/>
</svg>
