<svg width="50" height="50" viewBox="0 0 50 50" fill="none" xmlns="http://www.w3.org/2000/svg">
<g id="YXl4YTXH2JSeqELaVHaHk0jAw1YUfb 1" clip-path="url(#clip0_1_372)">
<g id="Group">
<path id="Vector" d="M31.1562 27.6315C30.9472 27.6315 30.6892 27.6315 30.4802 27.6845C29.9102 25.8705 28.4062 24.5195 26.5382 24.1565C26.7462 23.2225 27.0572 22.0815 27.3692 20.8365C31.8822 20.9415 36.8612 16.5845 36.7582 11.5005C36.7062 6.9365 33.5942 3.5635 29.3932 0.452497C29.1342 0.244497 28.7702 0.504497 28.8212 0.816497C29.9112 7.0395 23.8942 6.5215 21.5082 11.5005C20.0042 14.6655 21.8202 17.8805 24.5172 19.4905C25.9172 16.1705 27.9402 12.7985 29.1352 10.5665C27.9412 13.7825 25.6072 20.4235 24.7772 24.1055C23.1162 24.3665 21.6632 25.4025 20.9382 26.9065C20.3162 26.6465 19.6402 26.4915 18.9672 26.4915C16.4252 26.4915 14.3492 28.3065 13.9362 30.6935H35.8772C35.0982 28.9285 33.2812 27.6315 31.1562 27.6315Z" fill="#091426"/>
<path id="Vector_2" d="M38.8852 32.5075H11.0812C10.1472 32.5075 9.47217 33.3385 9.68017 34.2725L12.8952 48.4855C13.0522 49.1605 13.6232 49.6275 14.2962 49.6275H35.7212C36.3932 49.6275 36.9662 49.1605 37.1202 48.4855L40.3372 34.2725C40.4922 33.3895 39.8162 32.5075 38.8852 32.5075Z" fill="#091426"/>
</g>
</g>
<defs>
<clipPath id="clip0_1_372">
<rect width="50" height="50" fill="white" transform="translate(0.000183105 0.000488281)"/>
</clipPath>
</defs>
</svg>
